HIERARCHY
ROOT Hips
{
	OFFSET 0.000000 0.000000 0.000000
	CHANNELS 6 Xposition Yposition Zposition Yrotation Xrotation Zrotation
	JOINT Chest
	{
		OFFSET 0.000000 -0.009281 11.569106
		CHANNELS 3 Yrotation Xrotation Zrotation
		JOINT Chest2
		{
			OFFSET -0.000000 0.016865 9.269641
			CHANNELS 3 Yrotation Xrotation Zrotation
			JOINT Chest3
			{
				OFFSET -0.000000 0.000001 8.374491
				CHANNELS 3 Yrotation Xrotation Zrotation
				JOINT Chest4
				{
					OFFSET -0.000000 0.000001 8.374493
					CHANNELS 3 Yrotation Xrotation Zrotation
					JOINT Neck
					{
						OFFSET -0.000000 0.000002 12.152554
						CHANNELS 3 Yrotation Xrotation Zrotation
						JOINT Head
						{
							OFFSET -0.000000 0.040101 7.802319
							CHANNELS 3 Yrotation Xrotation Zrotation
							End Site
							{
								OFFSET -0.000000 0.020947 14.853096
							}
						}
					}
					JOINT RightCollar
					{
						OFFSET 2.894404 0.000001 6.791374
						CHANNELS 3 Yrotation Xrotation Zrotation
						JOINT RightShoulder
						{
							OFFSET 13.574684 0.000001 0.000000
							CHANNELS 3 Yrotation Xrotation Zrotation
							JOINT RightElbow
							{
								OFFSET 23.923903 0.000002 0.000000
								CHANNELS 3 Yrotation Xrotation Zrotation
								JOINT RightWrist
								{
									OFFSET 19.846718 0.012767 0.000000
									CHANNELS 3 Yrotation Xrotation Zrotation
									End Site
									{
										OFFSET 14.973145 0.000001 0.000000
									}
								}
							}
						}
					}
					JOINT LeftCollar
					{
						OFFSET -2.894404 0.000001 6.791374
						CHANNELS 3 Yrotation Xrotation Zrotation
						JOINT LeftShoulder
						{
							OFFSET -13.574684 -0.000001 0.000000
							CHANNELS 3 Yrotation Xrotation Zrotation
							JOINT LeftElbow
							{
								OFFSET -23.923903 -0.000002 0.000000
								CHANNELS 3 Yrotation Xrotation Zrotation
								JOINT LeftWrist
								{
									OFFSET -19.846718 0.012763 0.000000
									CHANNELS 3 Yrotation Xrotation Zrotation
									End Site
									{
										OFFSET -14.973145 -0.000001 0.000000
									}
								}
							}
						}
					}
				}
			}
		}
	}
	JOINT RightHip
	{
		OFFSET 9.469263 0.004643 0.045487
		CHANNELS 3 Yrotation Xrotation Zrotation
		JOINT RightKnee
		{
			OFFSET 0.000000 0.002661 -40.478676
			CHANNELS 3 Yrotation Xrotation Zrotation
			JOINT RightAnkle
			{
				OFFSET 0.000000 0.049106 -35.224068
				CHANNELS 3 Yrotation Xrotation Zrotation
				JOINT RightToe
				{
					OFFSET -0.000001 12.539529 -6.151390
					CHANNELS 3 Yrotation Xrotation Zrotation
					End Site
					{
						OFFSET -0.000001 5.044994 -1.291870
					}
				}
			}
		}
	}
	JOINT LeftHip
	{
		OFFSET -9.469263 0.004641 0.045487
		CHANNELS 3 Yrotation Xrotation Zrotation
		JOINT LeftKnee
		{
			OFFSET 0.000000 0.002661 -40.478676
			CHANNELS 3 Yrotation Xrotation Zrotation
			JOINT LeftAnkle
			{
				OFFSET 0.000000 0.049106 -35.224068
				CHANNELS 3 Yrotation Xrotation Zrotation
				JOINT LeftToe
				{
					OFFSET -0.000001 12.539529 -6.151390
					CHANNELS 3 Yrotation Xrotation Zrotation
					End Site
					{
						OFFSET -0.000001 5.044994 -1.291870
					}
				}
			}
		}
	}
}
MOTION
Frames: 5
Frame Time: 0.016667
9.492971 7.341453 83.015846 -6.381720 -4.238978 -118.576565 -1.388565 -0.950499 -3.012136 -0.621389 -0.412344 -1.330145 -0.621389 -0.412343 -1.330145 -0.466939 -0.307908 -0.998026 0.780399 -15.492898 -13.196054 -3.303648 6.486996 -24.315858 -4.367217 3.404029 1.629838 69.193225 21.114705 72.664456 22.327269 29.224805 39.567368 -64.776380 23.571212 3.173550 -12.645653 -2.566654 -10.478012 -62.176633 -18.299441 -47.953662 -28.759239 10.282752 -38.733419 59.263940 18.665292 -0.496620 0.819612 -5.935959 2.036685 -0.244554 -5.717181 -0.596977 0.371064 3.863391 4.536274 -0.059521 -0.023110 -0.018032 0.313933 -9.820810 6.414448 0.594392 -3.006851 4.259566 -0.879109 5.711241 1.337999 -0.018462 -0.021492 0.016703 
9.493182 7.329772 83.017296 -6.360418 -4.225441 -118.576086 -1.414698 -0.957869 -2.980281 -0.633913 -0.415521 -1.315598 -0.633913 -0.415521 -1.315598 -0.476329 -0.310278 -0.987129 0.806532 -15.458561 -13.217069 -3.269112 6.551997 -24.350097 -4.329090 3.494546 1.603617 69.112744 21.257106 72.824167 24.898760 30.427704 41.852370 -64.249213 23.883254 1.107882 -12.595650 -2.551380 -10.533157 -62.073579 -18.108479 -48.165466 -30.695055 10.880236 -40.422644 58.830031 19.319142 1.707750 0.830052 -5.930747 2.040726 -0.256541 -5.685265 -0.625346 0.379462 3.846651 4.544615 -0.055130 -0.020591 -0.016958 0.314914 -9.805253 6.384993 0.602976 -2.992107 4.275673 -0.886328 5.701782 1.343326 -0.017066 -0.016075 0.015253 
9.496260 7.317712 83.018799 -6.335462 -4.211880 -118.571114 -1.448323 -0.961968 -2.942655 -0.648943 -0.416805 -1.297997 -0.648943 -0.416805 -1.298006 -0.487594 -0.311227 -0.973942 0.843285 -15.434361 -13.243872 -3.215056 6.599662 -24.389943 -4.281642 3.494027 1.565357 69.076319 21.452210 72.965094 27.576645 31.293191 44.408705 -63.665457 24.532714 -1.090433 -12.541756 -2.548645 -10.600807 -62.013828 -17.924795 -48.329281 -32.511786 11.230034 -42.149039 58.459398 20.073829 3.831341 0.837447 -5.931591 2.016861 -0.267687 -5.640105 -0.627966 0.390631 3.825390 4.595985 -0.052609 -0.018212 -0.015934 0.317452 -9.790537 6.366026 0.610478 -2.971435 4.277693 -0.891712 5.690079 1.354996 -0.015657 -0.010688 0.013455 
9.504255 7.307595 83.019356 -6.304922 -4.194707 -118.562153 -1.490787 -0.950569 -2.898303 -0.667466 -0.411140 -1.277670 -0.667467 -0.411142 -1.277664 -0.501459 -0.306962 -0.958694 0.878345 -15.421121 -13.274444 -3.163309 6.626320 -24.435908 -4.201106 3.471872 1.478010 69.110265 21.645144 73.162801 29.952046 31.826510 46.708030 -62.933295 25.337458 -3.068346 -12.462449 -2.592333 -10.678413 -62.061257 -17.693371 -48.410117 -34.292092 11.289546 -43.922966 58.169053 20.929902 5.863918 0.842540 -5.934976 2.000476 -0.271461 -5.580002 -0.642724 0.399470 3.800634 4.613640 -0.052055 -0.018547 -0.016077 0.318045 -9.774600 6.370613 0.618022 -2.943930 4.254426 -0.893379 5.679533 1.376193 -0.015378 -0.007787 0.011696 
9.514666 7.294371 83.019035 -6.273997 -4.180592 -118.552645 -1.531175 -0.948666 -2.859372 -0.685694 -0.409455 -1.260193 -0.685694 -0.409455 -1.260193 -0.515115 -0.305680 -0.945603 0.904583 -15.397365 -13.300375 -3.128257 6.671222 -24.477834 -4.088504 3.565660 1.369745 69.151991 21.774986 73.370664 31.958267 32.207579 48.661454 -62.355748 26.087721 -4.918295 -12.368352 -2.625420 -10.767584 -62.206610 -17.364139 -48.391398 -36.096553 11.077386 -45.703910 57.928180 21.756251 7.636924 0.845363 -5.948860 2.024793 -0.268949 -5.508903 -0.689234 0.406545 3.777309 4.658837 -0.048360 -0.021517 -0.014012 0.325305 -9.765302 6.392891 0.619039 -2.911574 4.222714 -0.893932 5.673710 1.364973 -0.014456 -0.009116 0.010323 
